<svg width="19" height="19" viewBox="0 0 19 19" fill="none" xmlns="http://www.w3.org/2000/svg">
<g clip-path="url(#clip0_21_308)">
<path d="M18.6641 9.5C18.6641 4.52944 14.6346 0.5 9.66406 0.5C4.6935 0.5 0.664062 4.52944 0.664062 9.5C0.664062 14.4706 4.6935 18.5 9.66406 18.5C14.6346 18.5 18.6641 14.4706 18.6641 9.5Z" fill="white"/>
<path d="M8.98067 13.2561L14.4131 7.92144C14.7477 7.5959 14.7477 7.0697 14.4131 6.74416C14.0785 6.41861 13.5377 6.41861 13.2031 6.74416L8.37567 11.4901L6.12502 9.28807C5.79043 8.96253 5.2496 8.96253 4.91501 9.28807C4.58041 9.61362 4.58041 10.1398 4.91501 10.4654L7.77066 13.2561C7.93753 13.4184 8.1566 13.5 8.37567 13.5C8.59473 13.5 8.8138 13.4184 8.98067 13.2561Z" fill="#0B3F67"/>
</g>
<defs>
<clipPath id="clip0_21_308">
<rect width="19" height="19" fill="white"/>
</clipPath>
</defs>
</svg>
